<svg id="Layer_1" data-name="Layer 1" xmlns="http://www.w3.org/2000/svg" viewBox="0 0 70 100"><defs><style>.cls-1{fill:#7196ff;}.cls-2{fill:#21cda5;}.cls-3{fill:#88a7ff;}.cls-4{fill:#202225;}.cls-5{fill:#b8cdff;}.cls-6{fill:#7fa0ff;}.cls-7{fill:#fff;}</style></defs><path class="cls-1" d="M7.3,88.7l3.1-2.4a.4.4,0,0,0,.09-.56.45.45,0,0,0-.19-.14L6.5,84.5a2.49,2.49,0,0,0-3.1,1.7,2.41,2.41,0,0,0-.1.8h0a2.4,2.4,0,0,0,4,1.7Z"/><path class="cls-1" d="M39,68.6h-.1A21.71,21.71,0,0,1,28.8,77a2.5,2.5,0,0,1-3.2-1.3,2.4,2.4,0,0,1,1.22-3.17l.08,0A16.45,16.45,0,0,0,34.8,66a2.5,2.5,0,0,1,3.46-.73l0,0A2.6,2.6,0,0,1,39,68.6Z"/><path class="cls-2" d="M16.9,52.4c2.4,1.8,3.3,1.8,3.3,1.8l-7.8.9a2.72,2.72,0,0,1,.5-2.1A2.9,2.9,0,0,1,16.9,52.4Z"/><path class="cls-2" d="M26.1,53.4l-8.8,1.1c.1,0,1.4-.2,4-3.9a2.8,2.8,0,0,1,3.9-.7h0A2.61,2.61,0,0,1,26.1,53.4Z"/><path class="cls-1" d="M11,99.8a2.8,2.8,0,0,1-2.11-3.35v0c.7-2.6,1.6-6.5,2.2-9.1a2.8,2.8,0,0,1,3.4-2h0a2.7,2.7,0,0,1,2.16,3.15l-.06.25c-.6,2.6-1.6,6.4-2.2,9a2.8,2.8,0,0,1-3.35,2.11Z"/><path class="cls-1" d="M21.6,99.9a2.91,2.91,0,0,1-2.2-3.4c.5-2.6,1.4-6.5,1.9-9.1a2.79,2.79,0,0,1,3.29-2.2h0a2.79,2.79,0,0,1,2.2,3.29h0c-.5,2.6-1.4,6.6-1.9,9.2a2.79,2.79,0,0,1-3.29,2.2Z"/><path class="cls-3" d="M30.4,86.4h0a7.3,7.3,0,0,1-6.9,4.2l-9-.4A7.9,7.9,0,0,1,7.4,85h0a8.62,8.62,0,0,1-.2-4.8l2.3-8,18.6-2.7,2.8,12.2A7,7,0,0,1,30.4,86.4Z"/><path class="cls-3" d="M.2,85.1v-.2A21.36,21.36,0,0,1,9,75.3a2.4,2.4,0,0,1,3.33.68l.07.12a2.4,2.4,0,0,1-.8,3.3h0a16.41,16.41,0,0,0-7,7.7,2.5,2.5,0,0,1-3.3,1.1A2.4,2.4,0,0,1,.2,85.1Z"/><path class="cls-1" d="M9,73.9s10.3,6.1,20-.6l-.9-3.8L9.5,72.2Z"/><rect class="cls-3" x="4.07" y="54.38" width="29.3" height="18.83" rx="5.3" transform="translate(-7.53 2.71) rotate(-6.9)"/><circle class="cls-4" cx="12.4" cy="62.6" r="1.6"/><circle class="cls-4" cx="29.5" cy="60.5" r="1.6"/><path class="cls-5" d="M26.43,68.08l-5.66.68a4.2,4.2,0,0,1-4.68-3.66h0L15.6,61a1.7,1.7,0,0,1,1.48-1.89l10-1.22A1.7,1.7,0,0,1,29,59.41h0L29.56,64a3.61,3.61,0,0,1-3.15,4Z"/><rect class="cls-6" x="25.68" y="64.01" width="2.2" height="1.47" rx="0.7" transform="translate(-7.58 3.69) rotate(-6.9)"/><rect class="cls-6" x="20.88" y="64.55" width="2.8" height="1.47" rx="0.7" transform="translate(-7.68 3.15) rotate(-6.9)"/><path class="cls-3" d="M8.23,71l-4.67.56A2.4,2.4,0,0,1,.89,69.5h0L.26,64.24a2.39,2.39,0,0,1,2.09-2.67h0L7,61H7l1.2,9.93h0Z"/><path class="cls-5" d="M6.54,69.37,5,69.56a1.2,1.2,0,0,1-1.34-1l-.49-4.07a1.2,1.2,0,0,1,1-1.34h0l1.59-.19h0l.78,6.46Z"/><path class="cls-7" d="M38.7,78.6l-.4-.2a53.62,53.62,0,0,1-2.6-11.1c-1.4-13.4-1.8-24,.5-35.8,0-.2.2-.4.4-.3s.4.2.3.4c-2.3,11.7-1.9,22.3-.4,35.6A46.36,46.36,0,0,0,39,78.1a.4.4,0,0,1-.2.5Z"/><path class="cls-7" d="M35.7,67.3c-.4-3.2-.7-7.1-1-11.1-.7-9-1.5-19.1-3.9-23.2a.29.29,0,0,1,0-.42.28.28,0,0,1,.11-.08.4.4,0,0,1,.5.2c2.5,4.2,3.3,13.9,4,23.4v.2c.6-8.7,3-16.6,6.8-21.6a.31.31,0,0,1,.39-.18l.11.08c.2.1.2.3.1.5C37.6,42,35,54.9,36.5,67.2Z"/><rect class="cls-1" x="34.47" y="65.65" width="3.1" height="1.87" rx="0.9" transform="translate(-20.95 16.73) rotate(-20.4)"/></svg>