<svg id="Layer_1" data-name="Layer 1" xmlns="http://www.w3.org/2000/svg" viewBox="0 0 70 100"><defs><style>.cls-1{fill:#7196ff;}.cls-2{fill:#21cda5;}.cls-3{fill:#88a7ff;}.cls-4{fill:#202225;}.cls-5{fill:#b8cdff;}.cls-6{fill:#7fa0ff;}.cls-7{fill:#fff;}.cls-8{fill:#1249cc;}.cls-9{fill:#fec9aa;}.cls-10{fill:#ff85ab;}</style></defs><path class="cls-1" d="M7.3,88.7l3.1-2.4a.4.4,0,0,0,.09-.56.45.45,0,0,0-.19-.14L6.5,84.5a2.49,2.49,0,0,0-3.1,1.7,2.41,2.41,0,0,0-.1.8h0a2.4,2.4,0,0,0,4,1.7Z"/><path class="cls-1" d="M39,68.6h-.1A21.71,21.71,0,0,1,28.8,77a2.5,2.5,0,0,1-3.2-1.3,2.4,2.4,0,0,1,1.22-3.17l.08,0A16.45,16.45,0,0,0,34.8,66a2.5,2.5,0,0,1,3.46-.73l0,0A2.6,2.6,0,0,1,39,68.6Z"/><path class="cls-2" d="M16.9,52.4c2.4,1.8,3.3,1.8,3.3,1.8l-7.8.9a2.72,2.72,0,0,1,.5-2.1A2.9,2.9,0,0,1,16.9,52.4Z"/><path class="cls-2" d="M26.1,53.4l-8.8,1.1c.1,0,1.4-.2,4-3.9a2.8,2.8,0,0,1,3.9-.7h0A2.61,2.61,0,0,1,26.1,53.4Z"/><path class="cls-1" d="M11,99.8a2.8,2.8,0,0,1-2.11-3.35v0c.7-2.6,1.6-6.5,2.2-9.1a2.8,2.8,0,0,1,3.4-2h0a2.7,2.7,0,0,1,2.16,3.15l-.06.25c-.6,2.6-1.6,6.4-2.2,9a2.8,2.8,0,0,1-3.35,2.11Z"/><path class="cls-1" d="M21.6,99.9a2.91,2.91,0,0,1-2.2-3.4c.5-2.6,1.4-6.5,1.9-9.1a2.79,2.79,0,0,1,3.29-2.2h0a2.79,2.79,0,0,1,2.2,3.29h0c-.5,2.6-1.4,6.6-1.9,9.2a2.79,2.79,0,0,1-3.29,2.2Z"/><path class="cls-3" d="M30.4,86.4h0a7.3,7.3,0,0,1-6.9,4.2l-9-.4A7.9,7.9,0,0,1,7.4,85h0a8.62,8.62,0,0,1-.2-4.8l2.3-8,18.6-2.7,2.8,12.2A7,7,0,0,1,30.4,86.4Z"/><path class="cls-3" d="M.2,85.1v-.2A21.36,21.36,0,0,1,9,75.3a2.4,2.4,0,0,1,3.33.68l.07.12a2.4,2.4,0,0,1-.8,3.3h0a16.41,16.41,0,0,0-7,7.7,2.5,2.5,0,0,1-3.3,1.1A2.4,2.4,0,0,1,.2,85.1Z"/><path class="cls-1" d="M9,73.9s10.3,6.1,20-.6l-.9-3.8L9.5,72.2Z"/><rect class="cls-3" x="4.07" y="54.38" width="29.3" height="18.83" rx="5.3" transform="translate(-7.53 2.71) rotate(-6.9)"/><circle class="cls-4" cx="12.4" cy="62.6" r="1.6"/><circle class="cls-4" cx="29.5" cy="60.5" r="1.6"/><path class="cls-5" d="M26.43,68.08l-5.66.68a4.2,4.2,0,0,1-4.68-3.66h0L15.6,61a1.7,1.7,0,0,1,1.48-1.89l10-1.22A1.7,1.7,0,0,1,29,59.41h0L29.56,64a3.61,3.61,0,0,1-3.15,4Z"/><rect class="cls-6" x="25.68" y="64.01" width="2.2" height="1.47" rx="0.7" transform="translate(-7.58 3.69) rotate(-6.9)"/><rect class="cls-6" x="20.88" y="64.55" width="2.8" height="1.47" rx="0.7" transform="translate(-7.68 3.15) rotate(-6.9)"/><path class="cls-3" d="M8.23,71l-4.67.56A2.4,2.4,0,0,1,.89,69.5h0L.26,64.24a2.39,2.39,0,0,1,2.09-2.67h0L7,61H7l1.2,9.93h0Z"/><path class="cls-5" d="M6.54,69.37,5,69.56a1.2,1.2,0,0,1-1.34-1l-.49-4.07a1.2,1.2,0,0,1,1-1.34h0l1.59-.19h0l.78,6.46Z"/><path class="cls-7" d="M38.7,78.6l-.4-.2a53.62,53.62,0,0,1-2.6-11.1c-1.4-13.4-1.8-24,.5-35.8,0-.2.2-.4.4-.3s.4.2.3.4c-2.3,11.7-1.9,22.3-.4,35.6A46.36,46.36,0,0,0,39,78.1a.4.4,0,0,1-.2.5Z"/><path class="cls-7" d="M35.7,67.3c-.4-3.2-.7-7.1-1-11.1-.7-9-1.5-19.1-3.9-23.2a.29.29,0,0,1,0-.42.28.28,0,0,1,.11-.08.4.4,0,0,1,.5.2c2.5,4.2,3.3,13.9,4,23.4v.2c.6-8.7,3-16.6,6.8-21.6a.31.31,0,0,1,.39-.18l.11.08c.2.1.2.3.1.5C37.6,42,35,54.9,36.5,67.2Z"/><path class="cls-8" d="M36.19,28.26l-2,2.6a.51.51,0,0,0-.13.69.49.49,0,0,0,.53.21l2.2.3a.5.5,0,0,0,.7-.1.49.49,0,0,0-.1-.7Z"/><path class="cls-9" d="M22.4,34.84a28.22,28.22,0,0,0,3.31.51c.9.09,1.74.12,2.52.13L15.51,38.11Z"/><path class="cls-9" d="M9.8,29.71A15.12,15.12,0,0,1,7,25.84a14.58,14.58,0,0,1-1.4-4.45l7.32,3.16,4.37,6.56Z"/><path class="cls-9" d="M9.73,16.06h0l3.48,3.6-8,.06-2-6.93Z"/><path class="cls-9" d="M8.3,9.51A19.28,19.28,0,0,1,11,5.59a19.91,19.91,0,0,1,1.79-1.78L12,11.12Z"/><path class="cls-9" d="M25.71,21.39l.4,3.5a.5.5,0,0,0,.9.4l2-1.4a.7.7,0,0,0,0-1,.47.47,0,0,0-.13-.11Z"/><path class="cls-9" d="M23.56,1.3l-5.48-.1,1.83,2.06a.69.69,0,0,0,.88.44L21,3.63Z"/><path class="cls-10" d="M44.4,31.84l-1.1,3.1a.6.6,0,0,1-.72.45.55.55,0,0,1-.28-.15l-1.5-1.7a.6.6,0,0,1,0-.85.69.69,0,0,1,.28-.15Z"/><rect class="cls-1" x="34.47" y="65.65" width="3.1" height="1.87" rx="0.9" transform="translate(-20.95 16.73) rotate(-20.4)"/><path class="cls-9" d="M17.67,21.44l.4,3.5a.51.51,0,0,0,.37.61.49.49,0,0,0,.53-.21l2-1.4a5.23,5.23,0,0,0,0-1,6,6,0,0,0-.68-2.49Z"/><path class="cls-9" d="M17.26,10.94l1.1,3.85c.35-1,.63-1.9.83-2.51.26-.81.35-1.08.45-1.41.22-.77.39-1.5.54-2.2Z"/><path class="cls-8" d="M45.47,25.76a28.22,28.22,0,0,0,3.31.51c.9.09,1.74.13,2.52.13L38.58,29Z"/><path class="cls-8" d="M23.06,24.45a14.73,14.73,0,0,1-4.19-8.32l7.32,3.16,4.37,6.57Z"/><path class="cls-8" d="M29.82,11.37h0l3.56,3.56L25,15.22l-1.91-7Z"/><path class="cls-8" d="M26,6.1a18.27,18.27,0,0,1,2.66-3.93A17.44,17.44,0,0,1,30.46.4l-.74,7.31Z"/><path class="cls-8" d="M42.52,1.3,37,1.2l1.83,2.06a.69.69,0,0,0,.88.44l.16-.07Z"/><path class="cls-8" d="M37.64,16.34l.4,3.5a.51.51,0,0,0,.37.61.48.48,0,0,0,.53-.21l2-1.4a5.17,5.17,0,0,0,0-1,6.09,6.09,0,0,0-.69-2.48Z"/><path class="cls-8" d="M33.75,6.67l1.1,3.84c.35-1,.63-1.89.83-2.51.26-.8.35-1.07.45-1.4.22-.77.39-1.51.54-2.2Z"/><path class="cls-8" d="M48.32,14.42l-1.1,3.84-.82-2.51c-.27-.81-.35-1.08-.45-1.41q-.33-1.15-.54-2.19Z"/><path class="cls-8" d="M49,7.88l-1.1,3.85c-.35-1-.63-1.89-.83-2.51-.26-.81-.35-1.08-.45-1.41-.22-.77-.39-1.5-.54-2.2Z"/><path class="cls-10" d="M51.24,34.2a28.22,28.22,0,0,1-3.31.51c-.9.09-1.74.13-2.52.13l12.72,2.63Z"/><path class="cls-10" d="M62.93,30.61a14.62,14.62,0,0,0,2.8-3.86,15,15,0,0,0,1.4-4.46l-7.32,3.16L55.44,32Z"/><path class="cls-10" d="M60.69,17.23h0l-3.48,3.61,8,.05,2-6.93Z"/><path class="cls-10" d="M38.21,6.41h0L34.73,10l8,.05,2-6.93Z"/><path class="cls-10" d="M64.8,9.5a18.87,18.87,0,0,0-2.66-3.92A19.91,19.91,0,0,0,60.35,3.8l.74,7.31Z"/><path class="cls-10" d="M40.38,22.51A19.59,19.59,0,0,1,43,18.58a21.13,21.13,0,0,1,1.79-1.77l-.74,7.31Z"/><path class="cls-8" d="M46.8,5.18a18.71,18.71,0,0,1-4.22,2.16A18.94,18.94,0,0,1,40.16,8l4.16-6Z"/><path class="cls-10" d="M48.3,2.57l5.47-.1L51.94,4.53a.7.7,0,0,1-.88.44L50.9,4.9Z"/><path class="cls-10" d="M49.18,24.29l-.4,3.5a.51.51,0,0,1-.36.61.52.52,0,0,1-.54-.21l-2-1.4a6.31,6.31,0,0,1,0-1,6,6,0,0,1,.68-2.49Z"/><path class="cls-10" d="M50,11.22l-.4,3.5a.49.49,0,0,1-.36.6.51.51,0,0,1-.54-.2l-2-1.4a6.05,6.05,0,0,1,.65-3.48Z"/><path class="cls-10" d="M59.33,14l-1.1,3.84c-.35-1-.63-1.89-.83-2.51-.26-.8-.35-1.07-.45-1.41-.22-.76-.39-1.5-.54-2.19Z"/></svg>