<svg xmlns="http://www.w3.org/2000/svg" viewBox="0 0 897.22 487.17"><path fill="#fff" d="M105,1.29H81.9V92.47H105Z"/><path fill="#fff" d="M69.55,62.44V31.79c0-21.25-17.13-30.5-35.4-30.5H0V39.6L22.73,60V22.8H34.89c7.73,0,11.46,3.73,11.46,9.66V60.93c0,5.94-3.62,9.91-11.46,9.91H0V92.47H34.11C52.42,92.58,69.55,83.44,69.55,62.44Z"/><path fill="#fff" d="M225.76,93.76a36.65,36.65,0,0,0,32.82-20.48L238.51,64c-5,12.64-25.65,9.54-25.65-1.4V31.17c0-11.35,20.34-13.93,26.53-2.58L258.18,21C250.85,4.79,237.33,0,226.13,0,207.85,0,189.8,10.57,189.8,31.17V62.59C189.84,83.33,207.85,93.76,225.76,93.76Z"/><path fill="#fff" d="M505.23,31.79c0-21.25-17.13-30.5-35.4-30.5H435.71V39.6L458.44,60V22.8H470.6c7.74,0,11.46,3.73,11.46,9.66V60.93c0,5.94-3.61,9.91-11.46,9.91H435.71V92.47h34.12c18.27.11,35.4-9,35.4-30Z"/><path fill="#fff" d="M129.57,63.62,115,77.29c8.51,10.94,20.07,16.47,31,16.47,16.72,0,35.29-9.65,36.06-27.3,1-22.4-15.21-28.07-31.42-31-7.08-1.55-11.87-4.13-12.12-8.51.37-10.57,16.72-10.94,26.26-.77l15.07-11.61C170.5,3.09,159.81,0,148.73,0c-16.73,0-33,9.39-33,27.3,0,17.39,13.38,26.67,28.08,29,7.47,1,15.84,4,15.58,9.14C158.78,75.19,138.7,74.68,129.57,63.62Z"/><path fill="#fff" d="M302.64,93.76c18.94,0,37.73-10.43,37.73-31.28V31.28C340.37,10.43,321.43,0,302.5,0s-37.73,10.32-37.73,31.28V62.44C264.77,83.33,283.71,93.76,302.64,93.76ZM287.83,31.28c0-6.71,7.23-10.32,14.41-10.32,7.48,0,15.07,3.21,15.07,10.32V62.44c0,6.56-7.33,9.91-14.7,9.91s-14.81-3.2-14.81-9.91V31.28Z"/><path fill="#fff" d="M375.92,63.48h4.13l21.11,29h28.73L405,61.16c11.09-3.47,17.91-13,17.91-29.88-.52-21.37-15.07-30-33.86-30H352.64V92.47H376v-29Zm0-40.68h13.52c14.55,0,14.55,20.86,0,20.86H375.92V22.8Z"/><path fill="#fff" d="M841.51,211l-10.73,72.33c-2.45,17.09-21.79,25-39.58,25-16.58,0-32.84-7.95-30.69-23.5L771.26,211c2.45-16.18,21.79-24.42,39.58-24.42S844,194.8,841.51,211m-22.17-74.12v0H703.72a5.94,5.94,0,0,0-5.89,5.06l-5.62,38.21a5.93,5.93,0,0,0,5,6.72,6.36,6.36,0,0,0,.87.06h21.11A3,3,0,0,1,722,191a80.52,80.52,0,0,0-5.61,20l-10.75,73.85C698.53,334.27,740,359,785.06,359c47.25,0,93.59-24.72,100.65-74.16L896.44,211c6.92-48.46-33-73.17-77.11-74.12M130.71,233.8l.59,35.44a1.58,1.58,0,0,1-1.18,1.55L118.18,228a1.46,1.46,0,0,0-.07-.19l-37-87.47a5.81,5.81,0,0,0-5.34-3.56h-42a5.8,5.8,0,0,0-5.74,5L.06,343.78a5.84,5.84,0,0,0,5.74,6.67H47.6a5.82,5.82,0,0,0,5.75-5.05L64.3,265.18a1.94,1.94,0,0,0,0-.24l-.6-41.22,1.2-.3,12.53,42.75.06.18,34.64,80.58a5.81,5.81,0,0,0,5.32,3.52h45.27a5.81,5.81,0,0,0,5.74-5l28-201.92a5.85,5.85,0,0,0-4.95-6.61,5.29,5.29,0,0,0-.8-.06H149.21a5.82,5.82,0,0,0-5.74,5l-12.74,91.69a2.11,2.11,0,0,0,0,.25m80.46,116.65h43.9a6,6,0,0,0,6-5.05l29.38-201.91a5.94,5.94,0,0,0-6-6.67h-43.9a6,6,0,0,0-6,5L205.14,343.78a5.94,5.94,0,0,0,6,6.67M321.89,141.82l-5.66,37.72a5.92,5.92,0,0,0,5,6.64,6.4,6.4,0,0,0,.88,0h45.2a5.88,5.88,0,0,1,5.93,6.65L352,343.81a5.91,5.91,0,0,0,5.93,6.64h43.82a6,6,0,0,0,5.93-5.05l21.75-154.12a6,6,0,0,1,5.93-5H484a6,6,0,0,0,5.93-5l5.65-37.73a5.89,5.89,0,0,0-5-6.63,6.36,6.36,0,0,0-.87-.06H327.82a6,6,0,0,0-5.93,5M627.2,211.35c-1.53,12.37-11.36,24.74-28.28,24.74h-25.4a5.9,5.9,0,0,1-5.95-5.85,5.64,5.64,0,0,1,0-.82L573,192.24a5.93,5.93,0,0,1,5.9-5H606c16.28,0,22.74,11.17,21.2,24.15m-15.06-74.53h-81.8a5.94,5.94,0,0,0-5.91,5L495.67,343.78a5.91,5.91,0,0,0,5.08,6.62,7.37,7.37,0,0,0,.82.05h43.6a5.94,5.94,0,0,0,5.91-5.05l8.46-60.31a2.94,2.94,0,0,1,3-2.53h5.61a3,3,0,0,1,2.51,1.35l41.62,63.84a6,6,0,0,0,5,2.7h53.83a5.85,5.85,0,0,0,4.89-9.21l-43.68-61.3a2.9,2.9,0,0,1,.7-4.05,3.7,3.7,0,0,1,.43-.25c27.89-13.38,44.09-27.08,49.42-65.19,6.14-50.1-25.82-73.63-70.71-73.63M50.71,458.25l15.2,7.52a1.67,1.67,0,0,1,.75,2.23,1.35,1.35,0,0,1-.15.26C55.57,483,42.94,487.17,31.87,487.17,14,487.17-2.51,476.71.32,455.92l4.38-31.5c2.82-20.66,22.41-31.25,40.69-31.25,10.7,0,22.93,4.36,28.38,18.91A2.27,2.27,0,0,1,72.46,415l-15.79,6.07a2.4,2.4,0,0,1-2.88-1c-2.48-3.94-7.24-5.64-12-5.64-6.57.13-13.14,3.75-14,9.95l-4.39,31.5c-.89,5.94,4.77,9.69,11.2,9.69A16.15,16.15,0,0,0,47.88,459a2.24,2.24,0,0,1,2.82-.72Zm455.87,0,15.2,7.52a1.67,1.67,0,0,1,.75,2.23,1.4,1.4,0,0,1-.16.26c-10.92,14.69-23.55,18.91-34.62,18.91-17.9,0-34.39-10.46-31.56-31.25l4.38-31.5c2.84-20.66,22.41-31.25,40.7-31.25,10.7,0,22.92,4.36,28.38,18.91a2.27,2.27,0,0,1-1.32,2.92l-15.78,6.07a2.4,2.4,0,0,1-2.89-1c-2.48-3.94-7.24-5.64-12-5.64-6.57.13-13.13,3.75-14,9.95l-4.37,31.5c-.91,5.94,4.76,9.69,11.2,9.69a16.14,16.14,0,0,0,13.3-6.64,2.22,2.22,0,0,1,2.82-.72ZM81.61,481l11.56-82.87a4.28,4.28,0,0,1,4.23-3.67H112a4.27,4.27,0,0,1,4.27,4.27,3.81,3.81,0,0,1,0,.59l-8.29,58.83a4.27,4.27,0,0,0,3.63,4.82,4,4,0,0,0,.6,0H139.4a4.27,4.27,0,0,1,4.27,4.27,3.43,3.43,0,0,1,0,.56l-1.93,14.32a4.26,4.26,0,0,1-4.23,3.7H85.84a4.29,4.29,0,0,1-4.28-4.27,4,4,0,0,1,0-.6Zm134.24-83.18,18,82.87a4.28,4.28,0,0,1-3.27,5.08,4.7,4.7,0,0,1-.91.1h-15.9a4.27,4.27,0,0,1-4.18-3.48L207.41,471a4.26,4.26,0,0,0-4.19-3.48h-18a4.29,4.29,0,0,0-3.91,2.54l-5.86,13.25a4.28,4.28,0,0,1-3.9,2.55H156.41a4.28,4.28,0,0,1-4.28-4.27,4.43,4.43,0,0,1,.43-1.89L193,396.86a4.3,4.3,0,0,1,3.85-2.39h14.87a4.28,4.28,0,0,1,4.18,3.36ZM190.53,447h13.65l-2.7-26.73h-.91Zm52.67,21.3,10.24-8.5a4.61,4.61,0,0,1,6.06.13,24,24,0,0,0,15.79,5.8c6.18,0,11.59-2.2,12.49-7,1-5.68-6.95-8.13-14.29-9.17-14.29-2.32-27.17-13.81-24-31.11,3.49-18.73,20-25.31,36.73-25.31,10,0,19.34,2.52,26.85,11.45a3.61,3.61,0,0,1-.44,5.08l-.26.2-10.89,7.56a4.17,4.17,0,0,1-5-.17,22.23,22.23,0,0,0-13-4.49c-5.81-.13-10.7,2.06-11.21,6.71-.64,5.29,4,7.62,10.94,9.17,15.85,3,31.3,9,27,31.76-3.35,17.81-18.8,26.73-38.5,26.73-9.85,0-21.78-4.49-29.14-13.38a3.88,3.88,0,0,1,.51-5.48Zm84.73,0,10.25-8.5a4.62,4.62,0,0,1,6.07.13,23.92,23.92,0,0,0,15.78,5.8c6.18,0,11.59-2.2,12.49-7,1-5.68-6.95-8.13-14.3-9.17-14.28-2.32-27.17-13.81-24-31.11,3.49-18.73,20-25.31,36.72-25.31,10,0,19.35,2.52,26.85,11.45a3.61,3.61,0,0,1-.44,5.08l-.26.2-10.89,7.56a4.17,4.17,0,0,1-5-.17,22.24,22.24,0,0,0-13-4.49c-5.79-.13-10.68,2.06-11.2,6.71-.65,5.29,4,7.62,10.94,9.17,15.85,3,31.3,9,27.05,31.76-3.35,17.81-18.8,26.73-38.5,26.73-9.85,0-21.78-4.49-29.14-13.38a3.9,3.9,0,0,1,.51-5.48Zm116.27-69-11.56,82.87a4.28,4.28,0,0,1-4.24,3.68H414a4.28,4.28,0,0,1-4.27-4.28,3.86,3.86,0,0,1,0-.58l11.56-82.87a4.28,4.28,0,0,1,4.23-3.67H440a4.28,4.28,0,0,1,4.27,4.28A5.46,5.46,0,0,1,444.2,399.32Z"/></svg>